# xmcd
#
# Track frame offsets:
#	150
#	2995
#	10250
#	28440
#	47000
#	60000
#	63402
#	75087
#	76800
#	87387
#	105950
#	122825
# Disc length: 1829 seconds
# Revision: 1
# Processed by: cddbd v1.5.2PL0 Copyright (c) Steve Scherf et al.
#
# Submitted via: libkcddb 0.31
#
DISCID=8107230c
DTITLE=Calvin Frazier - This Old World's in a Tangle
DYEAR=1938
DGENRE=Blues
TTITLE0=This Old World's in a Tangle (fragment)
TTITLE1=I'm in the Highway, Man
TTITLE2=Lilly Mae (version 1)
TTITLE3=Blues
TTITLE4=She's a Double-Crossin' Woman
TTITLE5=(Interview)
TTITLE6=The Dirty Dozens
TTITLE7=(Interview)
TTITLE8=Boogie-Woogie
TTITLE9=Lilly Mae (version 2)
TTITLE10=This Old World's in a Tangle
TTITLE11=Highway 51 Blues
EXTD=The Library of Congress Field Recordings
EXTT0=
EXTT1=
EXTT2=
EXTT3=
EXTT4=
EXTT5=
EXTT6=
EXTT7=
EXTT8=
EXTT9=
EXTT10=
EXTT11=
PLAYORDER=
